<?xml version="1.0" encoding="UTF-8"?>
<svg xmlns="http://www.w3.org/2000/svg" xmlns:xlink="http://www.w3.org/1999/xlink" width="200px" height="50px" viewBox="0 0 198 50" version="1.1">
<g id="surface1">
<path style=" stroke:none;fill-rule:nonzero;fill:rgb(7.058824%,5.490196%,21.176471%);fill-opacity:1;" d="M 36.957031 0.628906 C 50.359375 0.628906 61.222656 11.542969 61.222656 25 C 61.222656 38.457031 50.359375 49.371094 36.957031 49.371094 C 23.539062 49.371094 12.675781 38.457031 12.675781 25 C 12.675781 11.542969 23.539062 0.628906 36.957031 0.628906 Z M 36.957031 0.628906 "/>
<path style=" stroke:none;fill-rule:nonzero;fill:rgb(33.72549%,77.254902%,56.470588%);fill-opacity:1;" d="M 16.40625 10.75 C 24.246094 10.75 30.601562 17.128906 30.601562 25 C 30.601562 32.871094 24.246094 39.25 16.40625 39.25 C 8.566406 39.25 2.214844 32.871094 2.214844 25 C 2.214844 17.128906 8.566406 10.75 16.40625 10.75 Z M 16.40625 10.75 "/>
<path style=" stroke:none;fill-rule:nonzero;fill:rgb(100%,100%,100%);fill-opacity:1;" d="M 38.667969 32.964844 L 33.308594 32.964844 L 33.308594 19.289062 C 33.308594 18.890625 33.386719 18.539062 33.542969 18.230469 C 33.824219 17.65625 34.722656 17.261719 36.238281 17.058594 C 37.140625 16.949219 38.492188 16.894531 40.296875 16.894531 C 42.09375 16.894531 43.53125 16.984375 44.613281 17.171875 C 45.691406 16.984375 47.128906 16.894531 48.925781 16.894531 C 50.722656 16.894531 52.074219 16.949219 52.972656 17.058594 C 54.496094 17.261719 55.398438 17.65625 55.679688 18.230469 C 55.832031 18.539062 55.90625 18.890625 55.90625 19.289062 L 55.90625 32.964844 L 50.554688 32.964844 L 50.554688 19.621094 C 50.554688 19.042969 50.011719 18.753906 48.925781 18.753906 C 48.269531 18.753906 47.820312 18.832031 47.574219 18.980469 C 47.417969 19.089844 47.335938 19.304688 47.335938 19.621094 L 47.335938 32.964844 L 41.875 32.964844 L 41.875 19.621094 C 41.875 19.304688 41.796875 19.089844 41.640625 18.980469 C 41.394531 18.832031 40.945312 18.753906 40.296875 18.753906 C 39.210938 18.753906 38.667969 19.042969 38.667969 19.621094 Z M 38.667969 32.964844 "/>
<path style=" stroke:none;fill-rule:evenodd;fill:rgb(100%,100%,100%);fill-opacity:1;" d="M 9.429688 32.964844 L 9.429688 17.035156 L 17.667969 17.035156 C 18.71875 17.035156 19.589844 17.078125 20.269531 17.160156 C 22.355469 17.40625 23.398438 18.390625 23.398438 20.113281 L 23.398438 30.09375 C 23.398438 31.128906 23.023438 31.851562 22.28125 32.261719 C 21.441406 32.730469 19.902344 32.964844 17.667969 32.964844 Z M 14.777344 18.941406 L 14.777344 31.058594 L 16.316406 31.058594 C 17.058594 31.058594 17.558594 30.9375 17.8125 30.6875 C 17.933594 30.539062 17.996094 30.265625 17.996094 29.867188 L 17.996094 20.175781 C 17.996094 19.351562 17.453125 18.941406 16.367188 18.941406 Z M 14.777344 18.941406 "/>
<path style=" stroke:none;fill-rule:evenodd;fill:rgb(33.72549%,77.254902%,56.470588%);fill-opacity:1;" d="M 83.402344 25.011719 C 83.402344 27.121094 82.949219 29.28125 81.484375 30.863281 C 80 32.480469 77.929688 33.015625 75.808594 33.015625 L 69.742188 33.015625 L 69.742188 16.71875 L 76.136719 16.71875 C 78.09375 16.71875 79.917969 17.261719 81.300781 18.695312 C 82.929688 20.378906 83.402344 22.738281 83.402344 25.011719 Z M 93.242188 29.558594 L 88.527344 29.558594 L 87.441406 33.015625 L 83.226562 33.015625 L 89.078125 16.71875 L 92.511719 16.71875 L 98.734375 33.015625 L 94.429688 33.015625 Z M 104.636719 20.742188 L 104.636719 33.015625 L 100.679688 33.015625 L 100.679688 20.742188 L 96.335938 20.742188 L 96.335938 16.71875 L 108.972656 16.71875 L 108.972656 20.742188 Z M 116.996094 29.558594 L 112.292969 29.558594 L 111.195312 33.015625 L 106.984375 33.015625 L 112.835938 16.71875 L 116.277344 16.71875 L 122.5 33.015625 L 118.195312 33.015625 Z M 73.695312 20.308594 L 73.695312 29.425781 L 75.796875 29.425781 C 76.699219 29.425781 77.722656 29.257812 78.371094 28.558594 C 79.210938 27.664062 79.34375 26.039062 79.34375 24.875 C 79.34375 23.910156 79.242188 22.746094 78.789062 21.871094 C 78.492188 21.296875 78.050781 20.886719 77.449219 20.628906 C 76.832031 20.371094 76.074219 20.308594 75.417969 20.308594 Z M 91.878906 25.96875 L 90.761719 22.46875 L 89.652344 25.96875 Z M 115.644531 25.96875 L 114.527344 22.46875 L 113.417969 25.96875 Z M 115.644531 25.96875 "/>
<path style=" stroke:none;fill-rule:evenodd;fill:rgb(7.058824%,5.490196%,21.176471%);fill-opacity:1;" d="M 124.765625 33.023438 L 124.765625 17.738281 L 127.664062 17.738281 L 131.140625 28.550781 L 131.847656 30.8125 C 131.886719 30.613281 131.988281 30.265625 132.144531 29.761719 C 132.296875 29.28125 132.449219 28.804688 132.59375 28.375 L 136.109375 17.738281 L 138.710938 17.738281 L 138.710938 33.023438 L 136.847656 33.023438 L 136.847656 20.238281 L 132.59375 33.023438 L 130.84375 33.023438 L 126.609375 20.019531 L 126.609375 33.023438 Z M 141.789062 25.574219 C 141.789062 23.074219 142.429688 21.097656 143.714844 19.648438 C 144.992188 18.1875 146.6875 17.460938 148.796875 17.46875 C 150.914062 17.332031 152.609375 18.039062 153.878906 19.589844 C 155.144531 21.144531 155.777344 23.082031 155.777344 25.402344 C 155.777344 27.679688 155.101562 29.5625 153.746094 31.050781 C 152.40625 32.542969 150.746094 33.28125 148.785156 33.28125 C 146.785156 33.28125 145.117188 32.519531 143.785156 30.996094 C 142.453125 29.46875 141.789062 27.660156 141.789062 25.574219 Z M 143.785156 25.617188 C 143.785156 27.414062 144.25 28.855469 145.179688 29.9375 C 146.109375 31.015625 147.304688 31.554688 148.765625 31.554688 C 150.261719 31.554688 151.472656 31.015625 152.394531 29.9375 C 153.316406 28.855469 153.777344 27.339844 153.777344 25.390625 C 153.777344 23.550781 153.316406 22.066406 152.394531 20.925781 C 151.464844 19.789062 150.269531 19.21875 148.808594 19.21875 C 147.332031 19.21875 146.125 19.738281 145.191406 20.78125 C 144.253906 21.824219 143.785156 23.4375 143.785156 25.617188 Z M 162.398438 33.023438 L 162.398438 19.535156 L 157.582031 19.535156 L 157.582031 17.738281 L 169.171875 17.738281 L 169.171875 19.535156 L 164.332031 19.535156 L 164.332031 33.023438 Z M 181.152344 17.738281 L 183.089844 17.738281 L 183.089844 26.78125 C 183.089844 28.851562 182.683594 30.414062 181.867188 31.472656 C 180.945312 32.679688 179.449219 33.28125 177.378906 33.28125 C 175.332031 33.28125 173.839844 32.726562 172.910156 31.613281 C 172.039062 30.574219 171.601562 28.960938 171.601562 26.78125 L 171.601562 17.738281 L 173.535156 17.738281 L 173.535156 27.089844 C 173.535156 28.570312 173.835938 29.671875 174.4375 30.390625 C 175.035156 31.109375 175.957031 31.472656 177.207031 31.472656 C 178.621094 31.472656 179.632812 31.136719 180.238281 30.472656 C 180.847656 29.800781 181.152344 28.671875 181.152344 27.089844 Z M 186.0625 28.105469 L 187.894531 27.941406 C 188.007812 29.0625 188.4375 29.929688 189.175781 30.546875 C 189.914062 31.164062 190.921875 31.46875 192.199219 31.460938 C 193.277344 31.460938 194.152344 31.214844 194.824219 30.71875 C 195.492188 30.234375 195.828125 29.617188 195.828125 28.867188 C 195.828125 28.179688 195.582031 27.632812 195.089844 27.253906 C 194.464844 26.769531 193.277344 26.347656 191.535156 25.976562 C 189.789062 25.613281 188.519531 25.058594 187.722656 24.3125 C 186.984375 23.617188 186.613281 22.742188 186.613281 21.6875 C 186.613281 20.488281 187.0625 19.5 187.957031 18.722656 C 188.90625 17.894531 190.171875 17.480469 191.757812 17.480469 C 193.453125 17.480469 194.792969 17.894531 195.777344 18.722656 C 196.761719 19.554688 197.25 20.660156 197.25 22.046875 L 195.398438 22.191406 C 195.292969 21.222656 194.964844 20.492188 194.402344 20.019531 C 193.816406 19.519531 192.960938 19.269531 191.839844 19.269531 C 190.734375 19.269531 189.890625 19.484375 189.308594 19.917969 C 188.761719 20.324219 188.488281 20.871094 188.488281 21.5625 C 188.488281 22.160156 188.695312 22.632812 189.105469 22.964844 C 189.617188 23.394531 190.570312 23.746094 191.964844 24.003906 C 194.074219 24.414062 195.582031 25.011719 196.492188 25.832031 C 197.292969 26.546875 197.691406 27.503906 197.691406 28.703125 C 197.691406 29.9375 197.195312 30.996094 196.195312 31.882812 C 195.164062 32.816406 193.863281 33.28125 192.292969 33.28125 C 190.363281 33.28125 188.847656 32.808594 187.730469 31.871094 C 186.617188 30.933594 186.0625 29.675781 186.0625 28.105469 Z M 186.0625 28.105469 "/>
</g>
</svg>
